<svg width="482" height="360" viewBox="0 0 482 360" fill="none" xmlns="http://www.w3.org/2000/svg">
<g clip-path="url(#clip0_2143_367)">
<path fill-rule="evenodd" clip-rule="evenodd" d="M1.00015 -8.00416H481V365.996H1.00015V-8.00416Z" fill="#1C2A33"/>
<path fill-rule="evenodd" clip-rule="evenodd" d="M227.7 121.976L227.711 106.128C227.711 104.297 228.397 102.585 229.651 101.306C231.044 99.8998 233.037 99.0964 235.138 99.0964C236.777 99.0964 238.353 99.607 239.575 100.516C241.054 101.622 241.975 103.29 242.168 105.196C242.168 105.239 243.014 113.505 243.775 120.904C249.102 117.74 252.692 111.891 252.692 105.196C252.692 95.1431 244.633 86.9958 234.688 86.9958C224.743 86.9958 216.683 95.1431 216.683 105.196C216.673 112.735 221.217 119.213 227.7 121.976ZM228.418 181.831C228.418 183.02 229.383 183.996 230.562 183.996H262.241C263.42 183.996 264.384 183.02 264.384 181.831V176.866H228.418V181.831ZM266.667 138.02C268.66 138.669 270 140.543 270 142.656L269.979 159.925C269.979 162.493 269.292 165.006 267.996 167.205L264.363 173.413H228.397C218.387 163.163 213.308 152.234 212.536 147.543C212 144.325 214.218 142.17 216.683 142.17C218.087 142.17 219.577 142.862 220.691 144.476C221.045 144.997 221.431 145.56 221.86 146.177C225.026 150.812 228.275 150.909 229.758 150.954L229.811 150.955H229.843C229.887 150.955 229.94 150.955 229.983 150.943H230.004C230.519 150.869 230.894 150.434 230.894 149.914L230.915 106.116C230.904 103.657 233.048 102.337 235.127 102.337C236.96 102.337 238.739 103.364 238.964 105.532C238.964 105.576 241.729 132.604 241.739 132.689V132.702H241.75C242.511 132.018 243.775 131.619 245.222 131.619C245.758 131.619 246.316 131.672 246.883 131.779C248.716 132.149 260.719 136.058 266.667 138.02Z" fill="#18CFAB"/>
<path d="M104.66 238H111.02C112.54 238 113.88 238.293 115.04 238.88C116.213 239.453 117.12 240.267 117.76 241.32C118.413 242.373 118.74 243.6 118.74 245C118.74 246.4 118.413 247.627 117.76 248.68C117.12 249.733 116.213 250.553 115.04 251.14C113.88 251.713 112.54 252 111.02 252H104.66V238ZM110.86 249.34C112.26 249.34 113.373 248.953 114.2 248.18C115.04 247.393 115.46 246.333 115.46 245C115.46 243.667 115.04 242.613 114.2 241.84C113.373 241.053 112.26 240.66 110.86 240.66H107.9V249.34H110.86ZM121.183 238H124.423V252H121.183V238ZM130.986 240.6V244.3H137.466V246.9H130.986V252H127.746V238H138.326V240.6H130.986ZM143.759 240.6V244.3H150.239V246.9H143.759V252H140.519V238H151.099V240.6H143.759ZM164.133 249.4V252H153.293V238H163.873V240.6H156.513V243.64H163.013V246.16H156.513V249.4H164.133ZM175.631 252L172.931 248.1H172.771H169.951V252H166.711V238H172.771C174.011 238 175.084 238.207 175.991 238.62C176.911 239.033 177.617 239.62 178.111 240.38C178.604 241.14 178.851 242.04 178.851 243.08C178.851 244.12 178.597 245.02 178.091 245.78C177.597 246.527 176.891 247.1 175.971 247.5L179.111 252H175.631ZM175.571 243.08C175.571 242.293 175.317 241.693 174.811 241.28C174.304 240.853 173.564 240.64 172.591 240.64H169.951V245.52H172.591C173.564 245.52 174.304 245.307 174.811 244.88C175.317 244.453 175.571 243.853 175.571 243.08ZM192.258 249.4V252H181.418V238H191.998V240.6H184.638V243.64H191.138V246.16H184.638V249.4H192.258ZM207.676 238V252H205.016L198.036 243.5V252H194.836V238H197.516L204.476 246.5V238H207.676ZM213.888 240.64H209.408V238H221.608V240.64H217.128V252H213.888V240.64ZM231.915 240.64H227.435V238H239.635V240.64H235.155V252H231.915V240.64ZM254.219 238V252H250.979V246.26H244.619V252H241.379V238H244.619V243.52H250.979V238H254.219ZM268.371 249.4V252H257.531V238H268.111V240.6H260.751V243.64H267.251V246.16H260.751V249.4H268.371ZM283.689 252L283.669 243.6L279.549 250.52H278.089L273.989 243.78V252H270.949V238H273.629L278.869 246.7L284.029 238H286.689L286.729 252H283.689ZM300.891 249.4V252H290.051V238H300.631V240.6H293.271V243.64H299.771V246.16H293.271V249.4H300.891ZM315.913 252.24C314.459 252.24 313.146 251.927 311.973 251.3C310.813 250.673 309.899 249.813 309.233 248.72C308.579 247.613 308.253 246.373 308.253 245C308.253 243.627 308.579 242.393 309.233 241.3C309.899 240.193 310.813 239.327 311.973 238.7C313.146 238.073 314.459 237.76 315.913 237.76C317.366 237.76 318.673 238.073 319.833 238.7C320.993 239.327 321.906 240.193 322.573 241.3C323.239 242.393 323.573 243.627 323.573 245C323.573 246.373 323.239 247.613 322.573 248.72C321.906 249.813 320.993 250.673 319.833 251.3C318.673 251.927 317.366 252.24 315.913 252.24ZM315.913 249.48C316.739 249.48 317.486 249.293 318.153 248.92C318.819 248.533 319.339 248 319.713 247.32C320.099 246.64 320.293 245.867 320.293 245C320.293 244.133 320.099 243.36 319.713 242.68C319.339 242 318.819 241.473 318.153 241.1C317.486 240.713 316.739 240.52 315.913 240.52C315.086 240.52 314.339 240.713 313.673 241.1C313.006 241.473 312.479 242 312.093 242.68C311.719 243.36 311.533 244.133 311.533 245C311.533 245.867 311.719 246.64 312.093 247.32C312.479 248 313.006 248.533 313.673 248.92C314.339 249.293 315.086 249.48 315.913 249.48ZM332.068 238C333.308 238 334.381 238.207 335.288 238.62C336.208 239.033 336.914 239.62 337.408 240.38C337.901 241.14 338.148 242.04 338.148 243.08C338.148 244.107 337.901 245.007 337.408 245.78C336.914 246.54 336.208 247.127 335.288 247.54C334.381 247.94 333.308 248.14 332.068 248.14H329.248V252H326.008V238H332.068ZM331.888 245.5C332.861 245.5 333.601 245.293 334.108 244.88C334.614 244.453 334.868 243.853 334.868 243.08C334.868 242.293 334.614 241.693 334.108 241.28C333.601 240.853 332.861 240.64 331.888 240.64H329.248V245.5H331.888ZM342.97 240.64H338.49V238H350.69V240.64H346.21V252H342.97V240.64ZM352.433 238H355.673V252H352.433V238ZM365.776 252.24C364.323 252.24 363.009 251.927 361.836 251.3C360.676 250.673 359.763 249.813 359.096 248.72C358.443 247.613 358.116 246.373 358.116 245C358.116 243.627 358.443 242.393 359.096 241.3C359.763 240.193 360.676 239.327 361.836 238.7C363.009 238.073 364.323 237.76 365.776 237.76C367.229 237.76 368.536 238.073 369.696 238.7C370.856 239.327 371.769 240.193 372.436 241.3C373.103 242.393 373.436 243.627 373.436 245C373.436 246.373 373.103 247.613 372.436 248.72C371.769 249.813 370.856 250.673 369.696 251.3C368.536 251.927 367.229 252.24 365.776 252.24ZM365.776 249.48C366.603 249.48 367.349 249.293 368.016 248.92C368.683 248.533 369.203 248 369.576 247.32C369.963 246.64 370.156 245.867 370.156 245C370.156 244.133 369.963 243.36 369.576 242.68C369.203 242 368.683 241.473 368.016 241.1C367.349 240.713 366.603 240.52 365.776 240.52C364.949 240.52 364.203 240.713 363.536 241.1C362.869 241.473 362.343 242 361.956 242.68C361.583 243.36 361.396 244.133 361.396 245C361.396 245.867 361.583 246.64 361.956 247.32C362.343 248 362.869 248.533 363.536 248.92C364.203 249.293 364.949 249.48 365.776 249.48ZM388.711 238V252H386.051L379.071 243.5V252H375.871V238H378.551L385.511 246.5V238H388.711Z" fill="#18CFAB"/>
</g>
<defs>
<clipPath id="clip0_2143_367">
<rect width="482" height="360" fill="white"/>
</clipPath>
</defs>
</svg>
