<svg width="482" height="360" viewBox="0 0 482 360" fill="none" xmlns="http://www.w3.org/2000/svg">
<g clip-path="url(#clip0_2143_354)">
<path fill-rule="evenodd" clip-rule="evenodd" d="M1.00015 -8.00416H481V365.996H1.00015V-8.00416Z" fill="#18CFAB"/>
<path fill-rule="evenodd" clip-rule="evenodd" d="M269.294 97.9961L257.05 116.415L244.395 97.9961H269.294ZM255.106 120.626H227.943L241.523 172.026L255.106 120.626ZM228.85 117.608H254.197L241.523 99.1601L228.85 117.608ZM225.998 116.415L238.651 97.9961H213.754L225.998 116.415ZM238.645 172.996L224.809 120.626H195L238.645 172.996ZM195.043 117.608H223.157L210.91 99.1857L195.043 117.608ZM272.116 99.2208L259.892 117.608H287.957L272.116 99.2208ZM258.239 120.626L244.401 172.991L288 120.626H258.239Z" fill="white"/>
<path d="M131.9 240.6V244.3H138.38V246.9H131.9V252H128.66V238H139.24V240.6H131.9ZM147.653 252.24C145.653 252.24 144.093 251.687 142.973 250.58C141.867 249.473 141.313 247.893 141.313 245.84V238H144.553V245.72C144.553 248.227 145.593 249.48 147.673 249.48C148.687 249.48 149.46 249.18 149.993 248.58C150.527 247.967 150.793 247.013 150.793 245.72V238H153.993V245.84C153.993 247.893 153.433 249.473 152.313 250.58C151.207 251.687 149.653 252.24 147.653 252.24ZM157.195 238H160.435V249.36H167.455V252H157.195V238ZM169.265 238H172.505V249.36H179.525V252H169.265V238ZM186.61 247.04V252H183.37V247L177.95 238H181.39L185.13 244.22L188.87 238H192.05L186.61 247.04ZM205.77 252.24C204.343 252.24 203.05 251.933 201.89 251.32C200.743 250.693 199.837 249.833 199.17 248.74C198.517 247.633 198.19 246.387 198.19 245C198.19 243.613 198.517 242.373 199.17 241.28C199.837 240.173 200.743 239.313 201.89 238.7C203.05 238.073 204.35 237.76 205.79 237.76C207.003 237.76 208.097 237.973 209.07 238.4C210.057 238.827 210.883 239.44 211.55 240.24L209.47 242.16C208.523 241.067 207.35 240.52 205.95 240.52C205.083 240.52 204.31 240.713 203.63 241.1C202.95 241.473 202.417 242 202.03 242.68C201.657 243.36 201.47 244.133 201.47 245C201.47 245.867 201.657 246.64 202.03 247.32C202.417 248 202.95 248.533 203.63 248.92C204.31 249.293 205.083 249.48 205.95 249.48C207.35 249.48 208.523 248.927 209.47 247.82L211.55 249.74C210.883 250.553 210.057 251.173 209.07 251.6C208.083 252.027 206.983 252.24 205.77 252.24ZM219.841 252.24C217.841 252.24 216.281 251.687 215.161 250.58C214.054 249.473 213.501 247.893 213.501 245.84V238H216.741V245.72C216.741 248.227 217.781 249.48 219.861 249.48C220.874 249.48 221.648 249.18 222.181 248.58C222.714 247.967 222.981 247.013 222.981 245.72V238H226.181V245.84C226.181 247.893 225.621 249.473 224.501 250.58C223.394 251.687 221.841 252.24 219.841 252.24ZM233.983 252.24C232.876 252.24 231.803 252.093 230.763 251.8C229.736 251.493 228.909 251.1 228.283 250.62L229.383 248.18C229.983 248.62 230.696 248.973 231.523 249.24C232.349 249.507 233.176 249.64 234.003 249.64C234.923 249.64 235.603 249.507 236.043 249.24C236.483 248.96 236.703 248.593 236.703 248.14C236.703 247.807 236.569 247.533 236.303 247.32C236.049 247.093 235.716 246.913 235.303 246.78C234.903 246.647 234.356 246.5 233.663 246.34C232.596 246.087 231.723 245.833 231.043 245.58C230.363 245.327 229.776 244.92 229.283 244.36C228.803 243.8 228.563 243.053 228.563 242.12C228.563 241.307 228.783 240.573 229.223 239.92C229.663 239.253 230.323 238.727 231.203 238.34C232.096 237.953 233.183 237.76 234.463 237.76C235.356 237.76 236.229 237.867 237.083 238.08C237.936 238.293 238.683 238.6 239.323 239L238.323 241.46C237.029 240.727 235.736 240.36 234.443 240.36C233.536 240.36 232.863 240.507 232.423 240.8C231.996 241.093 231.783 241.48 231.783 241.96C231.783 242.44 232.029 242.8 232.523 243.04C233.029 243.267 233.796 243.493 234.823 243.72C235.889 243.973 236.763 244.227 237.443 244.48C238.123 244.733 238.703 245.133 239.183 245.68C239.676 246.227 239.923 246.967 239.923 247.9C239.923 248.7 239.696 249.433 239.243 250.1C238.803 250.753 238.136 251.273 237.243 251.66C236.349 252.047 235.263 252.24 233.983 252.24ZM244.841 240.64H240.361V238H252.561V240.64H248.081V252H244.841V240.64ZM260.889 252.24C259.436 252.24 258.123 251.927 256.949 251.3C255.789 250.673 254.876 249.813 254.209 248.72C253.556 247.613 253.229 246.373 253.229 245C253.229 243.627 253.556 242.393 254.209 241.3C254.876 240.193 255.789 239.327 256.949 238.7C258.123 238.073 259.436 237.76 260.889 237.76C262.343 237.76 263.649 238.073 264.809 238.7C265.969 239.327 266.883 240.193 267.549 241.3C268.216 242.393 268.549 243.627 268.549 245C268.549 246.373 268.216 247.613 267.549 248.72C266.883 249.813 265.969 250.673 264.809 251.3C263.649 251.927 262.343 252.24 260.889 252.24ZM260.889 249.48C261.716 249.48 262.463 249.293 263.129 248.92C263.796 248.533 264.316 248 264.689 247.32C265.076 246.64 265.269 245.867 265.269 245C265.269 244.133 265.076 243.36 264.689 242.68C264.316 242 263.796 241.473 263.129 241.1C262.463 240.713 261.716 240.52 260.889 240.52C260.063 240.52 259.316 240.713 258.649 241.1C257.983 241.473 257.456 242 257.069 242.68C256.696 243.36 256.509 244.133 256.509 245C256.509 245.867 256.696 246.64 257.069 247.32C257.456 248 257.983 248.533 258.649 248.92C259.316 249.293 260.063 249.48 260.889 249.48ZM283.724 252L283.704 243.6L279.584 250.52H278.124L274.024 243.78V252H270.984V238H273.664L278.904 246.7L284.064 238H286.724L286.764 252H283.724ZM290.086 238H293.326V252H290.086V238ZM307.988 249.36V252H295.748V249.9L303.428 240.64H295.908V238H307.688V240.1L300.028 249.36H307.988ZM319.286 249H312.786L311.546 252H308.226L314.466 238H317.666L323.926 252H320.526L319.286 249ZM318.266 246.54L316.046 241.18L313.826 246.54H318.266ZM335.659 244.72C336.459 244.973 337.085 245.4 337.539 246C337.992 246.587 338.219 247.313 338.219 248.18C338.219 249.407 337.739 250.353 336.779 251.02C335.832 251.673 334.445 252 332.619 252H325.379V238H332.219C333.925 238 335.232 238.327 336.139 238.98C337.059 239.633 337.519 240.52 337.519 241.64C337.519 242.32 337.352 242.927 337.019 243.46C336.699 243.993 336.245 244.413 335.659 244.72ZM328.599 240.44V243.74H331.819C332.619 243.74 333.225 243.6 333.639 243.32C334.052 243.04 334.259 242.627 334.259 242.08C334.259 241.533 334.052 241.127 333.639 240.86C333.225 240.58 332.619 240.44 331.819 240.44H328.599ZM332.379 249.56C333.232 249.56 333.872 249.42 334.299 249.14C334.739 248.86 334.959 248.427 334.959 247.84C334.959 246.68 334.099 246.1 332.379 246.1H328.599V249.56H332.379ZM340.672 238H343.912V249.36H350.932V252H340.672V238ZM363.582 249.4V252H352.742V238H363.322V240.6H355.962V243.64H362.462V246.16H355.962V249.4H363.582Z" fill="white"/>
</g>
<defs>
<clipPath id="clip0_2143_354">
<rect width="482" height="360" fill="white"/>
</clipPath>
</defs>
</svg>
