<svg width="482" height="360" viewBox="0 0 482 360" fill="none" xmlns="http://www.w3.org/2000/svg">
<g clip-path="url(#clip0_2143_325)">
<path fill-rule="evenodd" clip-rule="evenodd" d="M1.00015 -8.00416H481V365.996H1.00015V-8.00416Z" fill="#18CFAB"/>
<path fill-rule="evenodd" clip-rule="evenodd" d="M273.362 102.361H211.188V113.537H205.71V96.9961H278.841V127.081H273.362V102.361ZM230.797 172.996H192V115.974H230.797V172.996ZM210.348 168.303C210.348 169.31 211.184 170.138 212.217 170.138C213.25 170.138 214.091 169.31 214.088 168.303C214.088 167.294 213.25 166.472 212.217 166.472C211.184 166.472 210.348 167.294 210.348 168.303ZM225.19 121.469H197.61V163.542H225.188L225.19 121.469ZM233.297 138.872H262.11V144.238H233.297V138.872ZM264.943 172.105V129.162H291V172.105H264.943ZM279.179 131.557C279.179 131.215 278.898 130.941 278.55 130.941C278.202 130.941 277.919 131.213 277.919 131.557C277.919 131.895 278.202 132.176 278.55 132.176C278.898 132.176 279.179 131.895 279.179 131.557ZM282.298 133H274.802V133.59H282.298V133ZM276.8 168.776C276.8 169.589 277.476 170.252 278.304 170.252C279.132 170.252 279.807 169.589 279.807 168.776C279.807 167.962 279.132 167.305 278.304 167.305C277.472 167.305 276.8 167.967 276.8 168.776ZM269.124 165.229C272.479 165.256 280.052 165.232 286.819 165.194V135.699L269.124 135.703V165.229ZM233.297 146.434H241.227H243.313H262.11V154.051H233.297V151.112H252.611V149.686H233.297V146.434Z" fill="white"/>
<path d="M123.58 252L120.88 248.1H120.72H117.9V252H114.66V238H120.72C121.96 238 123.033 238.207 123.94 238.62C124.86 239.033 125.567 239.62 126.06 240.38C126.553 241.14 126.8 242.04 126.8 243.08C126.8 244.12 126.547 245.02 126.04 245.78C125.547 246.527 124.84 247.1 123.92 247.5L127.06 252H123.58ZM123.52 243.08C123.52 242.293 123.267 241.693 122.76 241.28C122.253 240.853 121.513 240.64 120.54 240.64H117.9V245.52H120.54C121.513 245.52 122.253 245.307 122.76 244.88C123.267 244.453 123.52 243.853 123.52 243.08ZM140.207 249.4V252H129.367V238H139.947V240.6H132.587V243.64H139.087V246.16H132.587V249.4H140.207ZM147.385 252.24C146.278 252.24 145.205 252.093 144.165 251.8C143.138 251.493 142.312 251.1 141.685 250.62L142.785 248.18C143.385 248.62 144.098 248.973 144.925 249.24C145.752 249.507 146.578 249.64 147.405 249.64C148.325 249.64 149.005 249.507 149.445 249.24C149.885 248.96 150.105 248.593 150.105 248.14C150.105 247.807 149.972 247.533 149.705 247.32C149.452 247.093 149.118 246.913 148.705 246.78C148.305 246.647 147.758 246.5 147.065 246.34C145.998 246.087 145.125 245.833 144.445 245.58C143.765 245.327 143.178 244.92 142.685 244.36C142.205 243.8 141.965 243.053 141.965 242.12C141.965 241.307 142.185 240.573 142.625 239.92C143.065 239.253 143.725 238.727 144.605 238.34C145.498 237.953 146.585 237.76 147.865 237.76C148.758 237.76 149.632 237.867 150.485 238.08C151.338 238.293 152.085 238.6 152.725 239L151.725 241.46C150.432 240.727 149.138 240.36 147.845 240.36C146.938 240.36 146.265 240.507 145.825 240.8C145.398 241.093 145.185 241.48 145.185 241.96C145.185 242.44 145.432 242.8 145.925 243.04C146.432 243.267 147.198 243.493 148.225 243.72C149.292 243.973 150.165 244.227 150.845 244.48C151.525 244.733 152.105 245.133 152.585 245.68C153.078 246.227 153.325 246.967 153.325 247.9C153.325 248.7 153.098 249.433 152.645 250.1C152.205 250.753 151.538 251.273 150.645 251.66C149.752 252.047 148.665 252.24 147.385 252.24ZM161.599 238C162.839 238 163.912 238.207 164.819 238.62C165.739 239.033 166.446 239.62 166.939 240.38C167.432 241.14 167.679 242.04 167.679 243.08C167.679 244.107 167.432 245.007 166.939 245.78C166.446 246.54 165.739 247.127 164.819 247.54C163.912 247.94 162.839 248.14 161.599 248.14H158.779V252H155.539V238H161.599ZM161.419 245.5C162.392 245.5 163.132 245.293 163.639 244.88C164.146 244.453 164.399 243.853 164.399 243.08C164.399 242.293 164.146 241.693 163.639 241.28C163.132 240.853 162.392 240.64 161.419 240.64H158.779V245.5H161.419ZM176.967 252.24C175.514 252.24 174.201 251.927 173.027 251.3C171.867 250.673 170.954 249.813 170.287 248.72C169.634 247.613 169.307 246.373 169.307 245C169.307 243.627 169.634 242.393 170.287 241.3C170.954 240.193 171.867 239.327 173.027 238.7C174.201 238.073 175.514 237.76 176.967 237.76C178.421 237.76 179.727 238.073 180.887 238.7C182.047 239.327 182.961 240.193 183.627 241.3C184.294 242.393 184.627 243.627 184.627 245C184.627 246.373 184.294 247.613 183.627 248.72C182.961 249.813 182.047 250.673 180.887 251.3C179.727 251.927 178.421 252.24 176.967 252.24ZM176.967 249.48C177.794 249.48 178.541 249.293 179.207 248.92C179.874 248.533 180.394 248 180.767 247.32C181.154 246.64 181.347 245.867 181.347 245C181.347 244.133 181.154 243.36 180.767 242.68C180.394 242 179.874 241.473 179.207 241.1C178.541 240.713 177.794 240.52 176.967 240.52C176.141 240.52 175.394 240.713 174.727 241.1C174.061 241.473 173.534 242 173.147 242.68C172.774 243.36 172.587 244.133 172.587 245C172.587 245.867 172.774 246.64 173.147 247.32C173.534 248 174.061 248.533 174.727 248.92C175.394 249.293 176.141 249.48 176.967 249.48ZM199.902 238V252H197.242L190.262 243.5V252H187.062V238H189.742L196.702 246.5V238H199.902ZM207.815 252.24C206.708 252.24 205.635 252.093 204.595 251.8C203.568 251.493 202.741 251.1 202.115 250.62L203.215 248.18C203.815 248.62 204.528 248.973 205.355 249.24C206.181 249.507 207.008 249.64 207.835 249.64C208.755 249.64 209.435 249.507 209.875 249.24C210.315 248.96 210.535 248.593 210.535 248.14C210.535 247.807 210.401 247.533 210.135 247.32C209.881 247.093 209.548 246.913 209.135 246.78C208.735 246.647 208.188 246.5 207.495 246.34C206.428 246.087 205.555 245.833 204.875 245.58C204.195 245.327 203.608 244.92 203.115 244.36C202.635 243.8 202.395 243.053 202.395 242.12C202.395 241.307 202.615 240.573 203.055 239.92C203.495 239.253 204.155 238.727 205.035 238.34C205.928 237.953 207.015 237.76 208.295 237.76C209.188 237.76 210.061 237.867 210.915 238.08C211.768 238.293 212.515 238.6 213.155 239L212.155 241.46C210.861 240.727 209.568 240.36 208.275 240.36C207.368 240.36 206.695 240.507 206.255 240.8C205.828 241.093 205.615 241.48 205.615 241.96C205.615 242.44 205.861 242.8 206.355 243.04C206.861 243.267 207.628 243.493 208.655 243.72C209.721 243.973 210.595 244.227 211.275 244.48C211.955 244.733 212.535 245.133 213.015 245.68C213.508 246.227 213.755 246.967 213.755 247.9C213.755 248.7 213.528 249.433 213.075 250.1C212.635 250.753 211.968 251.273 211.075 251.66C210.181 252.047 209.095 252.24 207.815 252.24ZM215.969 238H219.209V252H215.969V238ZM235.913 238L229.853 252H226.653L220.613 238H224.113L228.373 248L232.693 238H235.913ZM247.922 249.4V252H237.082V238H247.662V240.6H240.302V243.64H246.802V246.16H240.302V249.4H247.922ZM265.384 249H258.884L257.644 252H254.324L260.564 238H263.764L270.024 252H266.624L265.384 249ZM264.364 246.54L262.144 241.18L259.924 246.54H264.364ZM271.476 238H274.716V249.36H281.736V252H271.476V238ZM283.547 238H286.787V249.36H293.807V252H283.547V238ZM301.281 238H307.641C309.161 238 310.501 238.293 311.661 238.88C312.834 239.453 313.741 240.267 314.381 241.32C315.034 242.373 315.361 243.6 315.361 245C315.361 246.4 315.034 247.627 314.381 248.68C313.741 249.733 312.834 250.553 311.661 251.14C310.501 251.713 309.161 252 307.641 252H301.281V238ZM307.481 249.34C308.881 249.34 309.994 248.953 310.821 248.18C311.661 247.393 312.081 246.333 312.081 245C312.081 243.667 311.661 242.613 310.821 241.84C309.994 241.053 308.881 240.66 307.481 240.66H304.521V249.34H307.481ZM328.645 249.4V252H317.805V238H328.385V240.6H321.025V243.64H327.525V246.16H321.025V249.4H328.645ZM344.487 238L338.427 252H335.227L329.187 238H332.687L336.947 248L341.267 238H344.487ZM345.656 238H348.896V252H345.656V238ZM358.919 252.24C357.492 252.24 356.199 251.933 355.039 251.32C353.892 250.693 352.985 249.833 352.319 248.74C351.665 247.633 351.339 246.387 351.339 245C351.339 243.613 351.665 242.373 352.319 241.28C352.985 240.173 353.892 239.313 355.039 238.7C356.199 238.073 357.499 237.76 358.939 237.76C360.152 237.76 361.245 237.973 362.219 238.4C363.205 238.827 364.032 239.44 364.699 240.24L362.619 242.16C361.672 241.067 360.499 240.52 359.099 240.52C358.232 240.52 357.459 240.713 356.779 241.1C356.099 241.473 355.565 242 355.179 242.68C354.805 243.36 354.619 244.133 354.619 245C354.619 245.867 354.805 246.64 355.179 247.32C355.565 248 356.099 248.533 356.779 248.92C357.459 249.293 358.232 249.48 359.099 249.48C360.499 249.48 361.672 248.927 362.619 247.82L364.699 249.74C364.032 250.553 363.205 251.173 362.219 251.6C361.232 252.027 360.132 252.24 358.919 252.24ZM377.727 249.4V252H366.887V238H377.467V240.6H370.107V243.64H376.607V246.16H370.107V249.4H377.727Z" fill="white"/>
</g>
<defs>
<clipPath id="clip0_2143_325">
<rect width="482" height="360" fill="white"/>
</clipPath>
</defs>
</svg>
