<svg width="482" height="360" viewBox="0 0 482 360" fill="none" xmlns="http://www.w3.org/2000/svg">
<g clip-path="url(#clip0_2143_344)">
<path fill-rule="evenodd" clip-rule="evenodd" d="M1.00015 -8.00416H481V365.996H1.00015V-8.00416Z" fill="#1C2A33"/>
<path fill-rule="evenodd" clip-rule="evenodd" d="M259 161.997C259 163.654 257.658 164.996 256 164.996H226C224.342 164.996 223 163.654 223 161.997C223 160.338 224.342 158.996 226 158.996H256C257.658 158.996 259 160.338 259 161.997ZM256 167.997H226C224.342 167.997 223 169.337 223 170.997C223 172.656 224.342 173.996 226 173.996H256C257.658 173.996 259 172.656 259 170.997C259 169.337 257.658 167.997 256 167.997ZM235 182.996H247C250.316 182.996 253 180.313 253 176.996H229C229 180.313 231.684 182.996 235 182.996ZM271 116.996C271 133.308 261.168 135.207 259.322 152.996C259.322 154.655 257.98 155.997 256.322 155.997H225.678C224.019 155.997 222.678 154.655 222.678 152.996H222.672C220.832 135.207 211 133.308 211 116.996C211 100.426 224.43 86.9958 241 86.9958C257.57 86.9958 271 100.426 271 116.996ZM253.146 107.997C218.271 116.246 235.146 137.997 235.146 137.997C235.146 125.996 243.959 123.183 244.146 123.559C237.959 129.559 235.146 149.996 235.146 149.996H241.147C241.147 149.996 241.147 143.996 241.147 137.997C258.209 138.934 253.146 110.058 253.146 107.997Z" fill="#18CFAB"/>
<path d="M140.88 252.24C138.88 252.24 137.32 251.687 136.2 250.58C135.093 249.473 134.54 247.893 134.54 245.84V238H137.78V245.72C137.78 248.227 138.82 249.48 140.9 249.48C141.913 249.48 142.687 249.18 143.22 248.58C143.753 247.967 144.02 247.013 144.02 245.72V238H147.22V245.84C147.22 247.893 146.66 249.473 145.54 250.58C144.433 251.687 142.88 252.24 140.88 252.24ZM163.262 238V252H160.602L153.622 243.5V252H150.422V238H153.102L160.062 246.5V238H163.262ZM166.574 238H169.814V249.36H176.834V252H166.574V238ZM178.644 238H181.884V252H178.644V238ZM197.947 252L197.927 243.6L193.807 250.52H192.347L188.247 243.78V252H185.207V238H187.887L193.127 246.7L198.287 238H200.947L200.987 252H197.947ZM204.308 238H207.548V252H204.308V238ZM213.771 240.64H209.291V238H221.491V240.64H217.011V252H213.771V240.64ZM234.074 249.4V252H223.234V238H233.814V240.6H226.454V243.64H232.954V246.16H226.454V249.4H234.074ZM236.652 238H243.012C244.532 238 245.872 238.293 247.032 238.88C248.206 239.453 249.112 240.267 249.752 241.32C250.406 242.373 250.732 243.6 250.732 245C250.732 246.4 250.406 247.627 249.752 248.68C249.112 249.733 248.206 250.553 247.032 251.14C245.872 251.713 244.532 252 243.012 252H236.652V238ZM242.852 249.34C244.252 249.34 245.366 248.953 246.192 248.18C247.032 247.393 247.452 246.333 247.452 245C247.452 243.667 247.032 242.613 246.192 241.84C245.366 241.053 244.252 240.66 242.852 240.66H239.892V249.34H242.852ZM263.44 252.24C262.333 252.24 261.26 252.093 260.22 251.8C259.193 251.493 258.366 251.1 257.74 250.62L258.84 248.18C259.44 248.62 260.153 248.973 260.98 249.24C261.806 249.507 262.633 249.64 263.46 249.64C264.38 249.64 265.06 249.507 265.5 249.24C265.94 248.96 266.16 248.593 266.16 248.14C266.16 247.807 266.026 247.533 265.76 247.32C265.506 247.093 265.173 246.913 264.76 246.78C264.36 246.647 263.813 246.5 263.12 246.34C262.053 246.087 261.18 245.833 260.5 245.58C259.82 245.327 259.233 244.92 258.74 244.36C258.26 243.8 258.02 243.053 258.02 242.12C258.02 241.307 258.24 240.573 258.68 239.92C259.12 239.253 259.78 238.727 260.66 238.34C261.553 237.953 262.64 237.76 263.92 237.76C264.813 237.76 265.686 237.867 266.54 238.08C267.393 238.293 268.14 238.6 268.78 239L267.78 241.46C266.486 240.727 265.193 240.36 263.9 240.36C262.993 240.36 262.32 240.507 261.88 240.8C261.453 241.093 261.24 241.48 261.24 241.96C261.24 242.44 261.486 242.8 261.98 243.04C262.486 243.267 263.253 243.493 264.28 243.72C265.346 243.973 266.22 244.227 266.9 244.48C267.58 244.733 268.16 245.133 268.64 245.68C269.133 246.227 269.38 246.967 269.38 247.9C269.38 248.7 269.153 249.433 268.7 250.1C268.26 250.753 267.593 251.273 266.7 251.66C265.806 252.047 264.72 252.24 263.44 252.24ZM277.814 252.24C275.814 252.24 274.254 251.687 273.134 250.58C272.027 249.473 271.474 247.893 271.474 245.84V238H274.714V245.72C274.714 248.227 275.754 249.48 277.834 249.48C278.847 249.48 279.62 249.18 280.154 248.58C280.687 247.967 280.954 247.013 280.954 245.72V238H284.154V245.84C284.154 247.893 283.594 249.473 282.474 250.58C281.367 251.687 279.814 252.24 277.814 252.24ZM293.415 238C294.655 238 295.729 238.207 296.635 238.62C297.555 239.033 298.262 239.62 298.755 240.38C299.249 241.14 299.495 242.04 299.495 243.08C299.495 244.107 299.249 245.007 298.755 245.78C298.262 246.54 297.555 247.127 296.635 247.54C295.729 247.94 294.655 248.14 293.415 248.14H290.595V252H287.355V238H293.415ZM293.235 245.5C294.209 245.5 294.949 245.293 295.455 244.88C295.962 244.453 296.215 243.853 296.215 243.08C296.215 242.293 295.962 241.693 295.455 241.28C294.949 240.853 294.209 240.64 293.235 240.64H290.595V245.5H293.235ZM307.868 238C309.108 238 310.182 238.207 311.088 238.62C312.008 239.033 312.715 239.62 313.208 240.38C313.702 241.14 313.948 242.04 313.948 243.08C313.948 244.107 313.702 245.007 313.208 245.78C312.715 246.54 312.008 247.127 311.088 247.54C310.182 247.94 309.108 248.14 307.868 248.14H305.048V252H301.808V238H307.868ZM307.688 245.5C308.662 245.5 309.402 245.293 309.908 244.88C310.415 244.453 310.668 243.853 310.668 243.08C310.668 242.293 310.415 241.693 309.908 241.28C309.402 240.853 308.662 240.64 307.688 240.64H305.048V245.5H307.688ZM323.237 252.24C321.784 252.24 320.47 251.927 319.297 251.3C318.137 250.673 317.224 249.813 316.557 248.72C315.904 247.613 315.577 246.373 315.577 245C315.577 243.627 315.904 242.393 316.557 241.3C317.224 240.193 318.137 239.327 319.297 238.7C320.47 238.073 321.784 237.76 323.237 237.76C324.69 237.76 325.997 238.073 327.157 238.7C328.317 239.327 329.23 240.193 329.897 241.3C330.564 242.393 330.897 243.627 330.897 245C330.897 246.373 330.564 247.613 329.897 248.72C329.23 249.813 328.317 250.673 327.157 251.3C325.997 251.927 324.69 252.24 323.237 252.24ZM323.237 249.48C324.064 249.48 324.81 249.293 325.477 248.92C326.144 248.533 326.664 248 327.037 247.32C327.424 246.64 327.617 245.867 327.617 245C327.617 244.133 327.424 243.36 327.037 242.68C326.664 242 326.144 241.473 325.477 241.1C324.81 240.713 324.064 240.52 323.237 240.52C322.41 240.52 321.664 240.713 320.997 241.1C320.33 241.473 319.804 242 319.417 242.68C319.044 243.36 318.857 244.133 318.857 245C318.857 245.867 319.044 246.64 319.417 247.32C319.804 248 320.33 248.533 320.997 248.92C321.664 249.293 322.41 249.48 323.237 249.48ZM342.252 252L339.552 248.1H339.392H336.572V252H333.332V238H339.392C340.632 238 341.705 238.207 342.612 238.62C343.532 239.033 344.239 239.62 344.732 240.38C345.225 241.14 345.472 242.04 345.472 243.08C345.472 244.12 345.219 245.02 344.712 245.78C344.219 246.527 343.512 247.1 342.592 247.5L345.732 252H342.252ZM342.192 243.08C342.192 242.293 341.939 241.693 341.432 241.28C340.925 240.853 340.185 240.64 339.212 240.64H336.572V245.52H339.212C340.185 245.52 340.925 245.307 341.432 244.88C341.939 244.453 342.192 243.853 342.192 243.08ZM350.744 240.64H346.264V238H358.464V240.64H353.984V252H350.744V240.64Z" fill="#18CFAB"/>
</g>
<defs>
<clipPath id="clip0_2143_344">
<rect width="482" height="360" fill="white"/>
</clipPath>
</defs>
</svg>
